<svg width="241" height="242" viewBox="0 0 241 242" fill="none" xmlns="http://www.w3.org/2000/svg">
<path d="M120.438 0.79657C54.0519 0.79657 0.234802 54.6137 0.234802 121C0.234802 171.924 31.9183 215.457 76.6329 232.972C75.5826 223.461 74.6327 208.835 77.0497 198.452C79.2342 189.071 91.145 138.703 91.145 138.703C91.145 138.703 87.5495 131.503 87.5495 120.857C87.5495 104.143 97.2373 91.6644 109.3 91.6644C119.555 91.6644 124.508 99.3638 124.508 108.596C124.508 118.91 117.942 134.329 114.554 148.619C111.722 160.583 120.553 170.34 132.354 170.34C153.718 170.34 170.14 147.813 170.14 115.296C170.14 86.515 149.46 66.3925 119.931 66.3925C85.7286 66.3925 65.6533 92.0457 65.6533 118.557C65.6533 128.888 69.6331 139.967 74.5992 145.989C75.5816 147.179 75.7254 148.222 75.4328 149.437C74.5204 153.233 72.4925 161.398 72.0945 163.069C71.5703 165.269 70.3524 165.736 68.0743 164.676C53.0617 157.688 43.6754 135.739 43.6754 118.109C43.6754 80.1911 71.2254 45.3683 123.098 45.3683C164.797 45.3683 197.202 75.0821 197.202 114.792C197.202 156.219 171.081 189.559 134.827 189.559C122.646 189.559 111.196 183.231 107.276 175.756C107.276 175.756 101.249 198.706 99.7874 204.331C97.0737 214.771 89.7478 227.859 84.8477 235.843C96.0943 239.325 108.046 241.203 120.438 241.203C186.825 241.203 240.642 187.386 240.642 121C240.642 54.6137 186.825 0.79657 120.438 0.79657Z" fill="#E60023"/>
</svg>
